<?xml version="1.0" encoding="utf-8"?>
<!-- Generator: Adobe Illustrator 18.1.1, SVG Export Plug-In . SVG Version: 6.00 Build 0)  -->
<svg version="1.1" id="Layer_1" xmlns:sketch="http://www.bohemiancoding.com/sketch/ns"
	 xmlns="http://www.w3.org/2000/svg" xmlns:xlink="http://www.w3.org/1999/xlink" x="0px" y="0px" viewBox="195 196 1001 118"
	 enable-background="new 195 196 1001 118" xml:space="preserve">
<title>Slice 1</title>
<desc>Created with Sketch.</desc>
<g>
	<path fill="#0F2105" d="M213,267.2c3.9,0,8.1,1.7,12.5,5.2c5.5,4.3,9.3,6.5,11.3,6.5c3,0,4.5-1.6,4.5-4.7c0-1.7-0.9-3.2-2.7-4.4
		c-0.9-0.6-6.2-2.6-15.8-6c-15.7-5.5-23.5-15.7-23.5-30.6c0-11.2,4.1-20.1,12.4-26.6c7.2-5.7,16.2-8.5,26.9-8.5
		c9.2,0,17.2,2.2,24.1,6.6c6.8,4.4,10.2,10.1,10.2,17c0,4.2-1.3,7.6-3.9,10.4c-2.6,2.8-5.9,4.2-10,4.2c-4.3,0-9.1-2.1-14.4-6.2
		c-3.3-2.6-5.8-3.8-7.4-3.8c-2.9,0-4.3,1.4-4.3,4.2c0,2.7,3.5,5.1,10.6,7.3c9.8,3.1,17.4,6.8,22.7,11.3c7.1,5.9,10.7,14.3,10.7,25
		c0,11.7-4,20.8-12,27.3c-7.4,6.1-17.1,9.1-29.1,9.1c-11.9,0-21.8-3.2-29.6-9.5c-6.3-5.1-9.4-11-9.4-17.7c0-4.5,1.5-8.3,4.6-11.3
		C204.7,268.8,208.5,267.3,213,267.2z"/>
	<path fill="#0F2105" d="M307.1,233.6h-9.3c-5.2,0-9.4-1.4-12.8-4.2c-3.6-3-5.4-7.1-5.4-12.1c0-3,0.8-5.9,2.5-8.7
		c1.7-2.8,3.9-4.8,6.6-5.9c2.7-1.2,9-1.8,19.1-1.8h35.5c8.7,0,14.3,0.5,16.9,1.6c2.8,1.1,5.1,3.1,6.8,5.9c1.7,2.8,2.6,5.7,2.6,8.8
		c0,4.8-1.9,9.1-5.8,12.7c-2.8,2.6-7.3,3.8-13.5,3.8h-8v53.1c0,5.8-1,10.3-3,13.4c-3.3,5.3-8.2,8-14.5,8c-6.3,0-11.1-2.4-14.5-7.3
		c-2.1-3-3.2-7.6-3.2-13.7V233.6z"/>
	<path fill="#0F2105" d="M410.1,220.9v42c0,8.1,3.3,12.2,9.8,12.2c6.5,0,9.8-3.9,9.8-11.7v-42.5c0-3.9,0.1-6.4,0.3-7.6
		c0.4-2.2,1.5-4.4,3.4-6.6c3.5-4.4,8.1-6.6,13.6-6.6c5.6,0,10.2,2.1,13.8,6.4c2.8,3.3,4.1,8.9,4.1,17v37.7c0,14-3.7,25.2-11.1,33.6
		c-9.2,10.5-20.5,15.7-33.8,15.7c-8.2,0-15.9-2.2-23.1-6.6c-9.2-5.6-15.7-13.5-19.3-23.9c-1.7-4.7-2.5-11-2.5-18.8v-37.7
		c0-4.4,0.1-7.3,0.3-8.7c0.5-2.9,1.6-5.5,3.4-7.8c3.6-4.6,8.2-6.9,13.9-6.9c5.1,0,9.3,1.8,12.9,5.5
		C408.5,208.8,410.1,213.9,410.1,220.9z"/>
	<path fill="#0F2105" d="M513.8,237l19.8-28.8c3.7-5.4,8.6-8.1,14.5-8.1c4.8,0,9,1.7,12.6,5.2c3.5,3.4,5.3,7.6,5.3,12.3
		c0,3.5-0.9,6.7-2.8,9.4l-17.9,26l21.9,27.7c2.2,2.8,3.3,6,3.3,9.7c0,4.9-1.7,9.1-5.2,12.6c-3.4,3.5-7.6,5.3-12.5,5.3
		c-5.4,0-9.5-1.7-12.3-5.2l-26.8-33.4v18.4c0,5.3-0.9,9.3-2.7,12.3c-3.3,5.3-8.2,8-14.5,8c-5.8,0-10.3-2-13.4-5.9
		c-3-3.6-4.5-8.4-4.5-14.3v-68.4c0-5.6,1.5-10.3,4.5-13.9c3.2-3.9,7.6-5.8,13.1-5.8c5.3,0,9.7,1.9,13.3,5.8c2,2.1,3.2,4.3,3.7,6.5
		c0.3,1.4,0.5,3.9,0.5,7.6V237z"/>
	<path fill="#2BDE73" d="M591.6,267.2c3.9,0,8.1,1.7,12.5,5.2c5.5,4.3,9.3,6.5,11.3,6.5c3,0,4.5-1.6,4.5-4.7c0-1.7-0.9-3.2-2.7-4.4
		c-0.9-0.6-6.2-2.6-15.8-6c-15.7-5.5-23.5-15.7-23.5-30.6c0-11.2,4.1-20.1,12.4-26.6c7.2-5.7,16.2-8.5,26.9-8.5
		c9.2,0,17.2,2.2,24.1,6.6c6.8,4.4,10.2,10.1,10.2,17c0,4.2-1.3,7.6-3.9,10.4c-2.6,2.8-5.9,4.2-10,4.2c-4.3,0-9.1-2.1-14.4-6.2
		c-3.3-2.6-5.8-3.8-7.4-3.8c-2.9,0-4.3,1.4-4.3,4.2c0,2.7,3.5,5.1,10.6,7.3c9.8,3.1,17.4,6.8,22.7,11.3c7.1,5.9,10.7,14.3,10.7,25
		c0,11.7-4,20.8-12,27.3c-7.4,6.1-17.1,9.1-29.1,9.1c-11.9,0-21.8-3.2-29.6-9.5c-6.3-5.1-9.4-11-9.4-17.7c0-4.5,1.5-8.3,4.6-11.3
		C583.3,268.8,587.1,267.3,591.6,267.2z"/>
	<path fill="#2BDE73" d="M685.7,233.6h-9.3c-5.2,0-9.4-1.4-12.8-4.2c-3.6-3-5.4-7.1-5.4-12.1c0-3,0.8-5.9,2.5-8.7
		c1.7-2.8,3.9-4.8,6.6-5.9c2.7-1.2,9-1.8,19.1-1.8h35.5c8.7,0,14.3,0.5,16.9,1.6c2.8,1.1,5.1,3.1,6.8,5.9c1.7,2.8,2.6,5.7,2.6,8.8
		c0,4.8-1.9,9.1-5.8,12.7c-2.8,2.6-7.3,3.8-13.5,3.8h-8v53.1c0,5.8-1,10.3-3,13.4c-3.3,5.3-8.2,8-14.5,8c-6.3,0-11.1-2.4-14.5-7.3
		c-2.1-3-3.2-7.6-3.2-13.7V233.6z"/>
	<path fill="#2BDE73" d="M774.3,293.7c-1.7,4-3.4,6.9-5.2,8.8c-3.5,3.9-7.8,5.8-12.9,5.8c-6.2,0-11-2.5-14.5-7.5c-2-3-3-6.3-3-10
		c0-3.1,0.7-6.2,2.2-9.3l33.4-71c3.2-6.9,8.6-10.4,16.2-10.4c7.7,0,13.2,3.6,16.5,10.7l33.7,71.6c1.4,2.9,2,5.7,2,8.5
		c0,4.2-1.4,7.9-4.1,11.1c-3.5,4.2-8.1,6.3-13.6,6.3c-4.5,0-8.3-1.4-11.3-4.2c-2.2-2.1-4.5-5.5-6.7-10.4H774.3z"/>
	<path fill="#2BDE73" d="M918.8,266.4l8.3,13.3c2.3,3.7,3.4,7.5,3.4,11.4c0,4.9-1.7,9.1-5.1,12.3c-3.4,3.3-7.6,4.9-12.5,4.9
		c-6.4,0-11.2-2.7-14.5-8.1l-14.7-24.1v14.5c0,4.9-1.6,9.1-4.9,12.6c-3.3,3.4-7.4,5.2-12.3,5.2c-6,0-10.6-2.2-13.8-6.5
		c-2.8-3.8-4.2-8.8-4.2-15v-65.7c0-13.5,7.3-20.2,21.8-20.2h22.3c7.3,0,14.2,2.1,20.5,6.4c6.3,4.2,10.9,9.8,13.8,16.5
		c2.2,5.1,3.3,10.2,3.3,15.4C930.2,248.8,926.4,257.9,918.8,266.4z"/>
	<path fill="#2BDE73" d="M960.6,233.6h-9.3c-5.2,0-9.4-1.4-12.8-4.2c-3.6-3-5.4-7.1-5.4-12.1c0-3,0.8-5.9,2.5-8.7
		c1.7-2.8,3.9-4.8,6.6-5.9c2.7-1.2,9-1.8,19.1-1.8h35.5c8.7,0,14.3,0.5,16.9,1.6c2.8,1.1,5.1,3.1,6.8,5.9c1.7,2.8,2.6,5.7,2.6,8.8
		c0,4.8-1.9,9.1-5.8,12.7c-2.8,2.6-7.3,3.8-13.5,3.8h-8v53.1c0,5.8-1,10.3-3,13.4c-3.3,5.3-8.2,8-14.5,8c-6.3,0-11.1-2.4-14.5-7.3
		c-2.1-3-3.2-7.6-3.2-13.7V233.6z"/>
	<path fill="#2BDE73" d="M1064.8,274.6h16c6.6,0,11.5,1.4,14.7,4.1c3.8,3.2,5.7,7.4,5.7,12.5c0,5.2-1.9,9.4-5.7,12.7
		c-3,2.5-7.8,3.7-14.6,3.7h-27.4c-6.5,0-10.9-0.5-13.3-1.5c-4.7-1.9-7.8-5.1-9.3-9.5c-0.9-2.8-1.4-7.4-1.4-13.8v-58
		c0-4.8,0.2-8.1,0.5-9.8c0.6-3.4,2-6.3,4.1-8.6c2.5-2.7,5.7-4.3,9.5-5.1c1.8-0.3,5.5-0.5,11.1-0.5h21c5.7,0,9.1,0.1,10,0.2
		c3.7,0.4,6.8,1.5,9.2,3.3c4.3,3.2,6.4,7.4,6.4,12.7c0,5.6-1.9,9.9-5.6,12.9c-3.3,2.7-7.9,4-13.6,4h-17.3v7.3h13.8
		c4.1,0,7.4,1.1,10,3.2c2.8,2.3,4.2,5.4,4.2,9.5c0,8.5-5.2,12.7-15.5,12.7h-12.5V274.6z"/>
	<path fill="#2BDE73" d="M1181.9,266.4l8.3,13.3c2.3,3.7,3.4,7.5,3.4,11.4c0,4.9-1.7,9.1-5.1,12.3c-3.4,3.3-7.6,4.9-12.5,4.9
		c-6.4,0-11.2-2.7-14.5-8.1l-14.7-24.1v14.5c0,4.9-1.6,9.1-4.9,12.6c-3.3,3.4-7.4,5.2-12.3,5.2c-6,0-10.6-2.2-13.7-6.5
		c-2.8-3.8-4.2-8.8-4.2-15v-65.7c0-13.5,7.3-20.2,21.8-20.2h22.3c7.3,0,14.2,2.1,20.5,6.4c6.3,4.2,10.9,9.8,13.8,16.5
		c2.2,5.1,3.3,10.2,3.3,15.4C1193.4,248.8,1189.5,257.9,1181.9,266.4z"/>
</g>
</svg>
